<svg width="173" height="29" viewBox="0 0 173 29" fill="none" xmlns="http://www.w3.org/2000/svg">
<path d="M4.12 10.16C6.73333 10.0533 8 10 7.92 10H8.16V11.48V12.96L8.48 12.64C9.14667 11.9467 9.94667 11.3867 10.88 10.96C11.6533 10.5333 12.56 10.24 13.6 10.08C14.2667 9.97333 15.1867 9.96 16.36 10.04C16.4667 10.0667 16.56 10.08 16.64 10.08C18.6933 10.32 20.08 11.1867 20.8 12.68C20.96 13 21.1067 13.4933 21.24 14.16C21.2933 14.4533 21.3333 16.36 21.36 19.88V25.12H22.76H24.12V26.56V28H23.76L20.96 27.92C19.36 27.8933 17.76 27.8933 16.16 27.92C14.2933 27.9733 13.3733 28 13.4 28H13.04V26.56V25.12H14.44H15.8V20.12C15.8 16.6533 15.7867 14.84 15.76 14.68C15.6267 13.32 15.0533 12.5733 14.04 12.44C13.8533 12.44 13.64 12.44 13.4 12.44C12.12 12.52 11.0267 13.0133 10.12 13.92C9.48 14.56 9.05333 15.2667 8.84 16.04C8.68 16.4933 8.6 17.64 8.6 19.48C8.6 19.8 8.6 20.36 8.6 21.16V25.12H10H11.36V26.56V28H11L8.2 27.92C6.6 27.8933 5 27.8933 3.4 27.92C1.53333 27.9733 0.613333 28 0.64 28H0.28V26.56V25.12H1.68H3.04V19.6C3.04 15.92 3.01333 14.0133 2.96 13.88C2.88 13.6133 2.70667 13.44 2.44 13.36C2.06667 13.2533 1.52 13.2 0.8 13.2H0.28V11.76V10.32H0.4C0.266667 10.32 1.50667 10.2667 4.12 10.16ZM45.1469 9.92L47.5869 9.96C51.5335 10.4133 54.1602 12.2267 55.4669 15.4C55.5469 15.5867 55.6269 15.7867 55.7069 16C56.0269 16.96 56.2002 17.9467 56.2269 18.96C56.2802 21.0933 55.7469 22.9333 54.6269 24.48C54.0402 25.36 53.2402 26.0933 52.2269 26.68C51.5602 27.1333 50.6402 27.52 49.4669 27.84C48.5069 28.08 47.3602 28.2 46.0269 28.2C44.6935 28.2 43.5469 28.08 42.5869 27.84C41.4135 27.52 40.4935 27.1333 39.8269 26.68C38.8135 26.0933 38.0135 25.36 37.4269 24.48C36.7335 23.4933 36.2535 22.3467 35.9869 21.04C35.5069 18.4533 35.9602 16.0933 37.3469 13.96C37.5069 13.6667 37.6935 13.4 37.9069 13.16C39.4535 11.32 41.6669 10.2533 44.5469 9.96C44.7069 9.93333 44.9069 9.92 45.1469 9.92ZM47.2269 12.44C46.5869 12.3333 45.9335 12.3067 45.2669 12.36C44.2269 12.52 43.4669 12.84 42.9869 13.32C42.4535 13.8 42.1335 14.6 42.0269 15.72C41.9735 16.28 41.9469 17.1067 41.9469 18.2C41.9202 21.0267 42.0535 22.8533 42.3469 23.68C42.7202 24.64 43.5869 25.2667 44.9469 25.56C45.5602 25.6667 46.2802 25.6667 47.1069 25.56C47.9335 25.4 48.5735 25.0933 49.0269 24.64C49.5602 24.1333 49.8802 23.2667 49.9869 22.04C50.0135 21.7467 50.0402 21.4133 50.0669 21.04L50.0269 16.04C50.0269 15.96 50.0269 15.9067 50.0269 15.88C49.8935 14.6533 49.5735 13.8 49.0669 13.32C48.6402 12.8933 48.0269 12.6 47.2269 12.44ZM72.2347 10.16C74.7414 10.0533 75.968 10 75.9147 10H76.1547V11.04L76.1947 12.08L76.3147 11.88C76.8214 11.1333 77.5014 10.6 78.3547 10.28C79.6614 9.8 81.1014 9.88 82.6747 10.52C83.0214 10.6267 83.328 10.7733 83.5947 10.96C84.5014 11.5733 85.0347 12.3333 85.1947 13.24C85.3014 13.72 85.2747 14.1733 85.1147 14.6C84.9014 15.4267 84.4214 16.0267 83.6747 16.4C83.2214 16.5867 82.768 16.68 82.3147 16.68C81.808 16.68 81.3547 16.5867 80.9547 16.4C80.1814 16.0267 79.6747 15.4267 79.4347 14.6C79.408 14.4667 79.3947 14.1867 79.3947 13.76C79.3947 13.3333 79.4214 13.0267 79.4747 12.84C79.5814 12.6 79.608 12.48 79.5547 12.48C79.4747 12.4 79.2347 12.48 78.8347 12.72C78.4347 12.9067 78.0747 13.2267 77.7547 13.68C77.248 14.48 76.888 15.6533 76.6747 17.2C76.648 17.4667 76.6214 18.88 76.5947 21.44V25.12H78.3147H80.0747V26.56V28H79.6347L76.5947 27.92C74.8347 27.8933 73.168 27.8933 71.5947 27.92C69.808 27.9733 68.9014 28 68.8747 28H68.5147V26.56V25.12H69.9147H71.2747V19.6C71.2747 15.92 71.248 14.0133 71.1947 13.88C71.1147 13.6133 70.9414 13.44 70.6747 13.36C70.3014 13.2533 69.7547 13.2 69.0347 13.2H68.5147V11.76V10.32H68.6347L72.2347 10.16ZM101.62 10.16C104.233 10.0533 105.5 10 105.42 10H105.66V11.48V12.96L105.98 12.64C106.647 11.9467 107.447 11.3867 108.38 10.96C109.153 10.5333 110.06 10.24 111.1 10.08C111.767 9.97333 112.687 9.96 113.86 10.04C113.967 10.0667 114.06 10.08 114.14 10.08C116.193 10.32 117.58 11.1867 118.3 12.68C118.46 13 118.607 13.4933 118.74 14.16C118.793 14.4533 118.833 16.36 118.86 19.88V25.12H120.26H121.62V26.56V28H121.26L118.46 27.92C116.86 27.8933 115.26 27.8933 113.66 27.92C111.793 27.9733 110.873 28 110.9 28H110.54V26.56V25.12H111.94H113.3V20.12C113.3 16.6533 113.287 14.84 113.26 14.68C113.127 13.32 112.553 12.5733 111.54 12.44C111.353 12.44 111.14 12.44 110.9 12.44C109.62 12.52 108.527 13.0133 107.62 13.92C106.98 14.56 106.553 15.2667 106.34 16.04C106.18 16.4933 106.1 17.64 106.1 19.48C106.1 19.8 106.1 20.36 106.1 21.16V25.12H107.5H108.86V26.56V28H108.5L105.7 27.92C104.1 27.8933 102.5 27.8933 100.9 27.92C99.0333 27.9733 98.1133 28 98.14 28H97.78V26.56V25.12H99.18H100.54V19.6C100.54 15.92 100.513 14.0133 100.46 13.88C100.38 13.6133 100.207 13.44 99.94 13.36C99.5667 13.2533 99.02 13.2 98.3 13.2H97.78V11.76V10.32H97.9C97.7667 10.32 99.0067 10.2667 101.62 10.16ZM137.727 0.24C137.78 0.213332 138.02 0.199998 138.447 0.199998C138.9 0.253332 139.194 0.293332 139.327 0.319999C140.367 0.639999 141.114 1.25333 141.567 2.16C141.807 2.66667 141.927 3.16 141.927 3.64C141.927 4.14667 141.807 4.64 141.567 5.12C141.114 6.05333 140.367 6.68 139.327 7C139.087 7.05333 138.754 7.08 138.327 7.08C137.874 7.08 137.54 7.05333 137.327 7C136.26 6.68 135.5 6.05333 135.047 5.12C134.834 4.69333 134.727 4.2 134.727 3.64C134.727 3.26667 134.74 3 134.767 2.84C134.9 2.36 135.14 1.90667 135.487 1.48C136.047 0.813332 136.794 0.399999 137.727 0.24ZM137.447 10.16C140.114 10.0533 141.394 10 141.287 10H141.527V17.56V25.12H142.767H144.007V26.56V28H143.647L141.087 27.92C139.62 27.8933 138.1 27.8933 136.527 27.92L133.807 28H133.447V26.56V25.12H134.847H136.207V19.64C136.207 15.9333 136.194 14.0267 136.167 13.92C136.06 13.6 135.887 13.4133 135.647 13.36C135.274 13.2533 134.74 13.2 134.047 13.2H133.567V11.76V10.32H133.687L137.447 10.16ZM159.5 10.16C162.007 10.0533 163.234 10 163.18 10H163.42V11.04L163.46 12.08L163.58 11.88C164.087 11.1333 164.767 10.6 165.62 10.28C166.927 9.8 168.367 9.88 169.94 10.52C170.287 10.6267 170.594 10.7733 170.86 10.96C171.767 11.5733 172.3 12.3333 172.46 13.24C172.567 13.72 172.54 14.1733 172.38 14.6C172.167 15.4267 171.687 16.0267 170.94 16.4C170.487 16.5867 170.034 16.68 169.58 16.68C169.074 16.68 168.62 16.5867 168.22 16.4C167.447 16.0267 166.94 15.4267 166.7 14.6C166.674 14.4667 166.66 14.1867 166.66 13.76C166.66 13.3333 166.687 13.0267 166.74 12.84C166.847 12.6 166.874 12.48 166.82 12.48C166.74 12.4 166.5 12.48 166.1 12.72C165.7 12.9067 165.34 13.2267 165.02 13.68C164.514 14.48 164.154 15.6533 163.94 17.2C163.914 17.4667 163.887 18.88 163.86 21.44V25.12H165.58H167.34V26.56V28H166.9L163.86 27.92C162.1 27.8933 160.434 27.8933 158.86 27.92C157.074 27.9733 156.167 28 156.14 28H155.78V26.56V25.12H157.18H158.54V19.6C158.54 15.92 158.514 14.0133 158.46 13.88C158.38 13.6133 158.207 13.44 157.94 13.36C157.567 13.2533 157.02 13.2 156.3 13.2H155.78V11.76V10.32H155.9L159.5 10.16Z" fill="black"/>
</svg>
