<svg width="18" height="18" viewBox="0 0 18 18" fill="none" xmlns="http://www.w3.org/2000/svg">
<path d="M12.6731 9.2981L7.04812 14.9231C6.96815 14.9976 6.86237 15.0382 6.75308 15.0363C6.64378 15.0343 6.53951 14.9901 6.46221 14.9128C6.38492 14.8355 6.34064 14.7312 6.33871 14.6219C6.33678 14.5126 6.37735 14.4068 6.45187 14.3268L11.778 8.99997L6.45187 3.6731C6.37735 3.59313 6.33678 3.48735 6.33871 3.37806C6.34064 3.26876 6.38492 3.16448 6.46221 3.08719C6.53951 3.00989 6.64378 2.96562 6.75308 2.96369C6.86237 2.96176 6.96815 3.00233 7.04812 3.07685L12.6731 8.70185C12.7521 8.78095 12.7965 8.88818 12.7965 8.99997C12.7965 9.11177 12.7521 9.219 12.6731 9.2981Z" fill="#545454"/>
</svg>
